<svg width="16" height="16" viewBox="0 0 16 16" fill="none" xmlns="http://www.w3.org/2000/svg">
<path d="M11.7045 1.77778L8.78006 1.04667C8.6567 1.01575 8.53001 1.00008 8.40284 1H5.27772C4.98879 1.00001 4.70556 1.08049 4.45979 1.23243C4.21403 1.38437 4.01544 1.60176 3.88628 1.86022L1.16406 7.30467C1.04555 7.54182 0.989623 7.80534 1.00158 8.07018C1.01355 8.33503 1.093 8.59243 1.2324 8.81794C1.37181 9.04345 1.56654 9.22959 1.7981 9.35868C2.02967 9.48778 2.29038 9.55555 2.5555 9.55556H6.26084H7.81639M11.7045 1.77778L11.7053 8.77778L9.06706 12.7351C8.75828 13.1979 8.59417 13.7408 8.59417 14.2969C8.59417 14.685 8.27917 15 7.89028 15H7.81561C7.40305 15 7.00739 14.8361 6.71567 14.5444C6.42395 14.2527 6.26006 13.857 6.26006 13.4444V9.55556M11.7045 1.77778H13.2608C13.6734 1.77778 14.0691 1.94167 14.3608 2.23339C14.6525 2.52511 14.8164 2.92077 14.8164 3.33333V8C14.8164 8.41256 14.6525 8.80822 14.3608 9.09994C14.0691 9.39167 13.6734 9.55556 13.2608 9.55556H11.3164" stroke="black" stroke-linecap="round" stroke-linejoin="round"/>
</svg>
