<svg width="16" height="16" viewBox="0 0 16 16" fill="none" xmlns="http://www.w3.org/2000/svg">
<path fill-rule="evenodd" clip-rule="evenodd" d="M8 16C10.1217 16 12.1566 15.1571 13.6569 13.6569C15.1571 12.1566 16 10.1217 16 8C16 5.87827 15.1571 3.84344 13.6569 2.34315C12.1566 0.842855 10.1217 0 8 0C5.87827 0 3.84344 0.842855 2.34315 2.34315C0.842855 3.84344 0 5.87827 0 8C0 10.1217 0.842855 12.1566 2.34315 13.6569C3.84344 15.1571 5.87827 16 8 16ZM9 3C9 2.73478 8.89464 2.48043 8.70711 2.29289C8.51957 2.10536 8.26522 2 8 2C7.73478 2 7.48043 2.10536 7.29289 2.29289C7.10536 2.48043 7 2.73478 7 3V3.092C6.40268 3.19833 5.83276 3.42344 5.324 3.754C4.602 4.234 4 5.009 4 6C4 6.99 4.602 7.765 5.324 8.246C5.804 8.566 6.378 8.791 7 8.908V10.849C6.609 10.722 6.32 10.532 6.157 10.345C6.0724 10.2412 5.96782 10.1554 5.84945 10.0928C5.73107 10.0302 5.60133 9.99196 5.46791 9.98043C5.33449 9.9689 5.20012 9.98428 5.07276 10.0257C4.9454 10.0671 4.82765 10.1336 4.72649 10.2214C4.62534 10.3091 4.54284 10.4163 4.48389 10.5365C4.42494 10.6568 4.39075 10.7876 4.38334 10.9214C4.37592 11.0551 4.39544 11.1889 4.44073 11.3149C4.48602 11.441 4.55617 11.5566 4.647 11.655C5.209 12.304 6.06 12.731 7 12.908V13C7 13.2652 7.10536 13.5196 7.29289 13.7071C7.48043 13.8946 7.73478 14 8 14C8.26522 14 8.51957 13.8946 8.70711 13.7071C8.89464 13.5196 9 13.2652 9 13V12.908C9.59733 12.8017 10.1672 12.5766 10.676 12.246C11.398 11.766 12 10.991 12 10C12 9.01 11.398 8.235 10.676 7.754C10.1672 7.42344 9.59733 7.19833 9 7.092V5.151C9.391 5.278 9.68 5.468 9.843 5.655C9.92839 5.75631 10.0331 5.83965 10.1509 5.90016C10.2688 5.96067 10.3975 5.99716 10.5296 6.00749C10.6617 6.01783 10.7945 6.00182 10.9204 5.96038C11.0462 5.91894 11.1626 5.85291 11.2627 5.76612C11.3628 5.67932 11.4447 5.5735 11.5035 5.4548C11.5624 5.33609 11.5971 5.20688 11.6056 5.07465C11.6141 4.94243 11.5962 4.80984 11.553 4.68458C11.5098 4.55932 11.4422 4.44389 11.354 4.345C10.791 3.696 9.941 3.269 9 3.092V3Z" fill="#6B7280"/>
</svg>
