<svg width="15" height="16" viewBox="0 0 15 16" fill="none" xmlns="http://www.w3.org/2000/svg">
<path d="M6.08751 5.64587C5.88633 5.45157 5.61689 5.34405 5.33722 5.34648C5.05754 5.34891 4.79001 5.46109 4.59224 5.65886C4.39447 5.85663 4.28229 6.12416 4.27986 6.40384C4.27743 6.68352 4.38494 6.95296 4.57924 7.15413L6.71258 9.28747C6.91261 9.48744 7.18387 9.59977 7.46671 9.59977C7.74955 9.59977 8.02081 9.48744 8.22084 9.28747L10.3542 7.15413C10.5485 6.95296 10.656 6.68352 10.6536 6.40384C10.6511 6.12416 10.539 5.85663 10.3412 5.65886C10.1434 5.46109 9.87588 5.34891 9.5962 5.34648C9.31653 5.34405 9.04709 5.45157 8.84591 5.64587L8.53338 5.9584V1.06667C8.53338 0.783769 8.421 0.512458 8.22096 0.312419C8.02092 0.112381 7.74961 0 7.46671 0C7.18381 0 6.9125 0.112381 6.71246 0.312419C6.51242 0.512458 6.40004 0.783769 6.40004 1.06667V5.9584L6.08751 5.64587Z" fill="#9FA6B2"/>
<path d="M0 3.2C0 2.6342 0.224761 2.09158 0.624839 1.69151C1.02492 1.29143 1.56754 1.06667 2.13333 1.06667H3.2C3.4829 1.06667 3.75421 1.17905 3.95425 1.37909C4.15429 1.57912 4.26667 1.85044 4.26667 2.13333C4.26667 2.41623 4.15429 2.68754 3.95425 2.88758C3.75421 3.08762 3.4829 3.2 3.2 3.2H2.13333V10.6667H4.26667L5.33333 12.8H9.6L10.6667 10.6667H12.8V3.2H11.7333C11.4504 3.2 11.1791 3.08762 10.9791 2.88758C10.779 2.68754 10.6667 2.41623 10.6667 2.13333C10.6667 1.85044 10.779 1.57912 10.9791 1.37909C11.1791 1.17905 11.4504 1.06667 11.7333 1.06667H12.8C13.3658 1.06667 13.9084 1.29143 14.3085 1.69151C14.7086 2.09158 14.9333 2.6342 14.9333 3.2V13.8667C14.9333 14.4325 14.7086 14.9751 14.3085 15.3752C13.9084 15.7752 13.3658 16 12.8 16H2.13333C1.56754 16 1.02492 15.7752 0.624839 15.3752C0.224761 14.9751 0 14.4325 0 13.8667V3.2Z" fill="#9FA6B2"/>
</svg>
