<svg width="14" height="8" viewBox="0 0 14 8" fill="none" xmlns="http://www.w3.org/2000/svg">
<path fill-rule="evenodd" clip-rule="evenodd" d="M9.79068 0.20932C9.92471 0.343388 10 0.525199 10 0.714771C10 0.904344 9.92471 1.08615 9.79068 1.22022L4.07129 6.93962C3.93722 7.07364 3.75541 7.14894 3.56584 7.14894C3.37626 7.14894 3.19445 7.07364 3.06038 6.93962L0.200688 4.07992C0.0704584 3.94508 -0.00160187 3.76449 2.7026e-05 3.57704C0.00165592 3.38959 0.0768437 3.21028 0.209396 3.07773C0.341949 2.94517 0.521261 2.86998 0.708712 2.86836C0.896163 2.86673 1.07675 2.93879 1.21159 3.06902L3.56584 5.42326L8.77978 0.20932C8.91385 0.0752926 9.09566 0 9.28523 0C9.4748 0 9.65661 0.0752926 9.79068 0.20932Z" fill="black"/>
<path fill-rule="evenodd" clip-rule="evenodd" d="M13.791 0.20932C13.925 0.343388 14.0003 0.525199 14.0003 0.714771C14.0003 0.904344 13.925 1.08615 13.791 1.22022L8.07156 6.93962C7.93749 7.07364 7.75568 7.14894 7.56611 7.14894C7.37653 7.14894 7.19472 7.07364 7.06066 6.93962L6.00003 6C5.8698 5.86516 5.99837 5.68745 6 5.5C6 5.5 6.36772 5.13255 6.50027 5C6.31282 5.00163 6.63282 4.86745 6.50027 5C6.68772 4.99837 6.8652 4.86977 7.00003 5L7.56611 5.42326L12.7801 0.20932C12.9141 0.0752926 13.0959 0 13.2855 0C13.4751 0 13.6569 0.0752926 13.791 0.20932Z" fill="black"/>
</svg>
