<svg width="16" height="16" viewBox="0 0 16 16" fill="none" xmlns="http://www.w3.org/2000/svg">
<path d="M9.55556 6.44444H13.2609C13.526 6.44445 13.7867 6.51222 14.0183 6.64132C14.2499 6.77041 14.4446 6.95655 14.584 7.18206C14.7234 7.40757 14.8028 7.66497 14.8148 7.92982C14.8268 8.19466 14.7708 8.45818 14.6523 8.69533L11.9301 14.1398C11.8009 14.3984 11.6022 14.6158 11.3563 14.7678C11.1104 14.9197 10.827 15.0001 10.5379 15H7.41356C7.28678 15 7.16 14.9844 7.03633 14.9533L4.11111 14.2222M9.55556 6.44444V2.55556C9.55556 2.143 9.39167 1.74733 9.09994 1.45561C8.80822 1.16389 8.41256 1 8 1H7.92611C7.53722 1 7.22222 1.315 7.22222 1.70389C7.22222 2.25922 7.05811 2.80211 6.74933 3.26411L4.11111 7.22222V14.2222M9.55556 6.44444H8M4.11111 14.2222H2.55556C2.143 14.2222 1.74733 14.0583 1.45561 13.7666C1.16389 13.4749 1 13.0792 1 12.6667V8C1 7.58744 1.16389 7.19178 1.45561 6.90006C1.74733 6.60833 2.143 6.44444 2.55556 6.44444H4.5" stroke="black" stroke-linecap="round" stroke-linejoin="round"/>
</svg>
