<svg width="20" height="20" viewBox="0 0 20 20" fill="none" xmlns="http://www.w3.org/2000/svg">
<path d="M1 2.125C1 1.82663 1.11853 1.54048 1.32951 1.32951C1.54048 1.11853 1.82663 1 2.125 1H17.875C18.1734 1 18.4595 1.11853 18.6705 1.32951C18.8815 1.54048 19 1.82663 19 2.125V4.375C19 4.67337 18.8815 4.95952 18.6705 5.17049C18.4595 5.38147 18.1734 5.5 17.875 5.5H2.125C1.82663 5.5 1.54048 5.38147 1.32951 5.17049C1.11853 4.95952 1 4.67337 1 4.375V2.125ZM1 11.125C1 10.8266 1.11853 10.5405 1.32951 10.3295C1.54048 10.1185 1.82663 10 2.125 10H8.875C9.17337 10 9.45952 10.1185 9.67049 10.3295C9.88147 10.5405 10 10.8266 10 11.125V17.875C10 18.1734 9.88147 18.4595 9.67049 18.6705C9.45952 18.8815 9.17337 19 8.875 19H2.125C1.82663 19 1.54048 18.8815 1.32951 18.6705C1.11853 18.4595 1 18.1734 1 17.875V11.125ZM14.5 11.125C14.5 10.8266 14.6185 10.5405 14.8295 10.3295C15.0405 10.1185 15.3266 10 15.625 10H17.875C18.1734 10 18.4595 10.1185 18.6705 10.3295C18.8815 10.5405 19 10.8266 19 11.125V17.875C19 18.1734 18.8815 18.4595 18.6705 18.6705C18.4595 18.8815 18.1734 19 17.875 19H15.625C15.3266 19 15.0405 18.8815 14.8295 18.6705C14.6185 18.4595 14.5 18.1734 14.5 17.875V11.125Z" stroke="#7F9CF5" stroke-width="2" stroke-linecap="round" stroke-linejoin="round"/>
</svg>
