<svg width="16" height="16" viewBox="0 0 16 16" fill="none" xmlns="http://www.w3.org/2000/svg">
<path fill-rule="evenodd" clip-rule="evenodd" d="M0.94 4.054C0.65235 4.23379 0.415152 4.48378 0.250713 4.78047C0.0862749 5.07716 -8.00022e-07 5.41079 0 5.75V13.642C0 14.1724 0.210714 14.6811 0.585786 15.0562C0.960859 15.4313 1.46957 15.642 2 15.642H14C14.5304 15.642 15.0391 15.4313 15.4142 15.0562C15.7893 14.6811 16 14.1724 16 13.642V5.75C16 5.41079 15.9137 5.07716 15.7493 4.78047C15.5848 4.48378 15.3476 4.23379 15.06 4.054L9.06 0.304005C8.74214 0.105339 8.37484 0 8 0C7.62516 0 7.25786 0.105339 6.94 0.304005L0.94 4.054ZM3.555 6.47701C3.44574 6.40412 3.32319 6.35347 3.19436 6.32795C3.06553 6.30242 2.93293 6.30253 2.80413 6.32825C2.67534 6.35397 2.55287 6.40481 2.44372 6.47786C2.33457 6.55091 2.24088 6.64475 2.168 6.75401C2.09512 6.86327 2.04447 6.98581 2.01894 7.11464C1.99342 7.24348 1.99352 7.37608 2.01924 7.50487C2.07119 7.76499 2.22434 7.99381 2.445 8.141L7.445 11.474C7.60933 11.5836 7.80245 11.6422 8 11.6422C8.19755 11.6422 8.39067 11.5836 8.555 11.474L13.555 8.141C13.7757 7.99381 13.9288 7.76499 13.9808 7.50487C14.0327 7.24476 13.9792 6.97467 13.832 6.75401C13.6848 6.53335 13.456 6.3802 13.1959 6.32825C12.9358 6.2763 12.6657 6.32981 12.445 6.47701L8 9.44001L3.555 6.47701Z" fill="#9FA6B2"/>
</svg>
