<svg width="17" height="20" viewBox="0 0 17 20" fill="none" xmlns="http://www.w3.org/2000/svg">
<path d="M5.10256 3H3.05128C2.50725 3 1.9855 3.21071 1.60081 3.58579C1.21612 3.96086 1 4.46957 1 5V17C1 17.5304 1.21612 18.0391 1.60081 18.4142C1.9855 18.7893 2.50725 19 3.05128 19H13.3077C13.8517 19 14.3735 18.7893 14.7582 18.4142C15.1429 18.0391 15.359 17.5304 15.359 17V5C15.359 4.46957 15.1429 3.96086 14.7582 3.58579C14.3735 3.21071 13.8517 3 13.3077 3H11.2564M5.10256 3C5.10256 3.53043 5.31868 4.03914 5.70337 4.41421C6.08806 4.78929 6.60981 5 7.15385 5H9.20513C9.74916 5 10.2709 4.78929 10.6556 4.41421C11.0403 4.03914 11.2564 3.53043 11.2564 3M5.10256 3C5.10256 2.46957 5.31868 1.96086 5.70337 1.58579C6.08806 1.21071 6.60981 1 7.15385 1H9.20513C9.74916 1 10.2709 1.21071 10.6556 1.58579C11.0403 1.96086 11.2564 2.46957 11.2564 3M8.17949 10H11.2564M8.17949 14H11.2564M5.10256 10H5.11282M5.10256 14H5.11282" stroke="#7F9CF5" stroke-width="2" stroke-linecap="round" stroke-linejoin="round"/>
</svg>
