<svg width="16" height="16" viewBox="0 0 16 16" fill="none" xmlns="http://www.w3.org/2000/svg">
<path d="M9.47781 4.23633C9.69335 4.44451 9.98204 4.5597 10.2817 4.5571C10.5813 4.55449 10.868 4.4343 11.0799 4.22241C11.2918 4.01051 11.412 3.72387 11.4146 3.42421C11.4172 3.12456 11.302 2.83587 11.0938 2.62033L8.80809 0.334613C8.59378 0.120361 8.30314 0 8.00009 0C7.69705 0 7.40641 0.120361 7.19209 0.334613L4.90638 2.62033C4.6982 2.83587 4.583 3.12456 4.58561 3.42421C4.58821 3.72387 4.70841 4.01051 4.9203 4.22241C5.1322 4.4343 5.41884 4.55449 5.71849 4.5571C6.01815 4.5597 6.30683 4.44451 6.52238 4.23633L6.85724 3.90147V9.14261C6.85724 9.44572 6.97764 9.73641 7.19197 9.95073C7.4063 10.1651 7.69699 10.2855 8.00009 10.2855C8.3032 10.2855 8.59389 10.1651 8.80822 9.95073C9.02254 9.73641 9.14295 9.44572 9.14295 9.14261V3.90147L9.47781 4.23633Z" fill="#9FA6B2"/>
<path d="M0 2.28575C0 1.67954 0.240816 1.09816 0.66947 0.669505C1.09812 0.24085 1.67951 3.48772e-05 2.28571 3.48772e-05H3.42857C3.73168 3.48772e-05 4.02237 0.120443 4.23669 0.33477C4.45102 0.549097 4.57143 0.839787 4.57143 1.14289C4.57143 1.446 4.45102 1.73669 4.23669 1.95101C4.02237 2.16534 3.73168 2.28575 3.42857 2.28575H2.28571V10.2857H4.57143L5.71429 12.5715H10.2857L11.4286 10.2857H13.7143V2.28575H12.5714C12.2683 2.28575 11.9776 2.16534 11.7633 1.95101C11.549 1.73669 11.4286 1.446 11.4286 1.14289C11.4286 0.839787 11.549 0.549097 11.7633 0.33477C11.9776 0.120443 12.2683 3.48772e-05 12.5714 3.48772e-05H13.7143C14.3205 3.48772e-05 14.9019 0.24085 15.3305 0.669505C15.7592 1.09816 16 1.67954 16 2.28575V13.7143C16 14.3205 15.7592 14.9019 15.3305 15.3306C14.9019 15.7592 14.3205 16 13.7143 16H2.28571C1.67951 16 1.09812 15.7592 0.66947 15.3306C0.240816 14.9019 0 14.3205 0 13.7143V2.28575Z" fill="#9FA6B2"/>
</svg>
