<?xml version="1.0" encoding="utf-8"?>
<!-- Generator: Adobe Illustrator 19.0.0, SVG Export Plug-In . SVG Version: 6.00 Build 0)  -->
<svg version="1.1" id="Layer_1" xmlns="http://www.w3.org/2000/svg" xmlns:xlink="http://www.w3.org/1999/xlink" x="0px" y="0px"
	 viewBox="-175 355 261 83" style="enable-background:new -175 355 261 83;" xml:space="preserve">
<style type="text/css">
	.st0{fill:#FFFFFF;}
</style>
<g>
	<path class="st0" d="M-139.7,363.2c1.4-0.5,2.9-0.4,4.1,0.4l24.5,15.5c1.3,0.8,2.1,2.3,2.1,3.8v40.5c0,1.7-0.9,3.2-2.4,4
		c-1.5,0.8-3.3,0.7-4.7-0.2l-5.5-3.5c-8.7-4.9-18.4,1.1-18.4,1.1c1.4-0.6,3.1-0.5,4.4,0.3l10.5,6.6l4.3,2.8
		c4.1,2.6,9.3,2.8,13.6,0.5c4.3-2.3,6.9-6.8,6.9-11.6V383c0-2.2-0.6-4.4-1.6-6.4c-1.1-2-2.6-3.6-4.5-4.8l-13.8-8.8l0,0
		c-2.6-1.6-5.4-2.9-9-2.9C-132.2,360.2-135.6,361-139.7,363.2"/>
	<path class="st0" d="M-137.3,355c-2.5,0-5,0.7-7.2,2.1l-24.4,15.5c-1.9,1.2-3.4,2.8-4.5,4.8c-1.1,1.9-1.6,4.1-1.6,6.4v40.5
		c0,4.8,2.6,9.3,6.9,11.6c4.3,2.3,9.5,2.2,13.6-0.5l4.6-3l10.1-6.4c0.2-0.1,0.4-0.2,0.6-0.3c0,0,9.6-6.1,18.3-1.1l-3.5-2.2v0
		l-2.5-1.6l-3.2-2c-2.1-1.4-4.6-2.1-7.2-2.1c-2.5,0-5,0.7-7.2,2.1l-5.4,3.4l-9.4,6c-1.4,0.9-3.2,1-4.7,0.2c-1.5-0.8-2.4-2.3-2.4-4
		v-37.3h0l0-0.1v-3c0-1.6,0.8-3,2.1-3.8l21.7-13.8l1.7-1.1c0.2-0.1,0.4-0.3,0.6-0.4l0,0c0.3-0.2,0.7-0.4,1.1-0.6l0.1,0
		c9.1-4.9,14.8-3.1,19.4-0.1l0,0l-4.4-2.8l-6.2-3.9C-132.3,355.7-134.8,355-137.3,355z"/>
	<path class="st0" d="M-57.2,373v17.4c2.3-3.9,6.1-5.8,11.2-5.8c4.2,0,7.6,1.4,10.3,4.2s3.9,6.6,3.9,11.5v21.5h-11.2v-20
		c0-2.4-0.6-4.2-1.9-5.5s-3-1.9-5.2-1.9s-3.9,0.6-5.2,1.9s-1.9,3.1-1.9,5.5v20h-11.3V373H-57.2z M-6.7,422.3
		c-5.4,0-9.8-1.7-13.2-5.2c-3.4-3.5-5.1-8-5.1-13.8c0-5.7,1.7-10.3,5.1-13.7s7.8-5.1,13.2-5.1s9.9,1.7,13.5,5
		c3.6,3.3,5.3,8,5.3,13.9c0,1.3-0.1,2.5-0.3,3.6h-25.3c0.2,1.6,0.9,3,2.2,4s2.6,1.6,4,1.6s2.5-0.1,3.2-0.4c0.7-0.3,1.2-0.6,1.6-0.9
		s0.8-0.8,1.3-1.4H11c-1.1,3.7-3.2,6.7-6.3,8.9C1.5,421.2-2.3,422.3-6.7,422.3L-6.7,422.3z M0.4,400.1c-0.2-1.7-0.9-3.1-2.2-4.2
		c-1.3-1.1-2.9-1.6-4.7-1.6s-3.3,0.5-4.6,1.6c-1.2,1.1-2,2.5-2.3,4.2C-13.4,400.1,0.4,400.1,0.4,400.1z M30.7,385v5.4
		c2.3-3.9,6.1-5.8,11.2-5.8c4.2,0,7.6,1.4,10.3,4.2s3.9,6.6,3.9,11.5v21.5H44.8v-20c0-2.4-0.6-4.2-1.9-5.5s-3-1.9-5.2-1.9
		s-3.9,0.6-5.2,1.9s-1.9,3.1-1.9,5.5v20H19.4V385H30.7L30.7,385z M81.3,412.3h4v9.6h-5.7c-4.1,0-7.3-0.9-9.6-2.7
		c-2.3-1.8-3.4-5-3.4-9.4v-15.3h-3.4V385h3.4v-9h11.3v9h7.4v9.4h-7.4v15.3C77.8,411.4,79,412.3,81.3,412.3z"/>
</g>
</svg>
