<svg xmlns="http://www.w3.org/2000/svg" width="261" height="83" viewBox="0 0 261 83">
    <g fill="none" fill-rule="evenodd">
        <path fill="#0062FF" d="M35.293 8.226a4.618 4.618 0 0 1 4.092.418l24.481 15.515a4.538 4.538 0 0 1 2.116 3.832v40.46c0 1.66-.913 3.19-2.383 3.988a4.62 4.62 0 0 1-4.672-.157l-5.542-3.512C44.642 63.86 35 69.916 35 69.916a4.62 4.62 0 0 1 4.385.3l10.477 6.64 4.343 2.752a13.447 13.447 0 0 0 13.605.457c4.28-2.325 6.94-6.775 6.94-11.614V27.99c0-2.217-.568-4.416-1.642-6.36a13.326 13.326 0 0 0-4.52-4.797l-13.807-8.75-.002.005c-2.557-1.624-5.44-2.896-9.04-2.896-2.934 0-6.345.845-10.446 3.033"/>
        <path fill="#0062FF" d="M37.698 0c-2.544 0-5.022.721-7.166 2.086L6.14 17.608a13.315 13.315 0 0 0-4.505 4.8A13.24 13.24 0 0 0 0 28.77v40.48c0 4.842 2.65 9.294 6.914 11.62a13.352 13.352 0 0 0 13.557-.457l4.65-2.959 10.116-6.438c.179-.114.364-.213.553-.3 0 0 9.607-6.059 18.318-1.146l-3.51-2.234v-.02l-2.525-1.587-3.209-2.042a13.323 13.323 0 0 0-7.166-2.085c-2.544 0-5.022.72-7.166 2.085l-5.411 3.444-9.354 5.953a4.587 4.587 0 0 1-4.656.157 4.547 4.547 0 0 1-2.375-3.99V31.914h-.001l.001-.111V28.77c0-1.552.795-2.997 2.109-3.833L32.51 11.15l1.734-1.103c.2-.122.417-.25.646-.385l.002-.001c.345-.203.72-.417 1.12-.639l.07-.025c9.097-4.876 14.79-3.088 19.415-.137l.003-.006-4.441-2.826-6.195-3.943A13.323 13.323 0 0 0 37.698 0z"/>
        <path fill="#423D55" fill-rule="nonzero" d="M117.786 18v17.424c2.332-3.872 6.05-5.808 11.154-5.808 4.224 0 7.645 1.408 10.263 4.224 2.618 2.816 3.927 6.644 3.927 11.484V66.84h-11.22V46.842c0-2.376-.627-4.213-1.881-5.511s-2.981-1.947-5.181-1.947-3.927.649-5.181 1.947-1.881 3.135-1.881 5.511V66.84H106.5V18h11.286zm50.556 49.302c-5.368 0-9.768-1.727-13.2-5.181-3.432-3.454-5.148-8.041-5.148-13.761 0-5.72 1.705-10.274 5.115-13.662 3.41-3.388 7.821-5.082 13.233-5.082 5.412 0 9.9 1.672 13.464 5.016 3.564 3.344 5.346 7.986 5.346 13.926 0 1.276-.088 2.464-.264 3.564h-25.344c.22 1.628.946 2.959 2.178 3.993 1.232 1.034 2.563 1.551 3.993 1.551 1.43 0 2.497-.143 3.201-.429.704-.286 1.221-.572 1.551-.858.33-.286.759-.759 1.287-1.419h12.21c-1.056 3.696-3.168 6.677-6.336 8.943s-6.93 3.399-11.286 3.399zm7.062-22.242c-.176-1.716-.924-3.113-2.244-4.191-1.32-1.078-2.882-1.617-4.686-1.617-1.804 0-3.322.539-4.554 1.617-1.232 1.078-2.002 2.475-2.31 4.191h13.794zm30.294-15.048v5.412c2.332-3.872 6.05-5.808 11.154-5.808 4.224 0 7.645 1.408 10.263 4.224 2.618 2.816 3.927 6.644 3.927 11.484V66.84h-11.22V46.842c0-2.376-.627-4.213-1.881-5.511s-2.981-1.947-5.181-1.947-3.927.649-5.181 1.947-1.881 3.135-1.881 5.511V66.84h-11.286V30.012h11.286zm50.556 27.258h4.026v9.57h-5.742c-4.136 0-7.337-.913-9.603-2.739-2.266-1.826-3.399-4.961-3.399-9.405V39.384h-3.432v-9.372h3.432v-8.976h11.286v8.976h7.392v9.372h-7.392v15.312c0 1.716 1.144 2.574 3.432 2.574z"/>
    </g>
</svg>
